<svg width="200" height="200" viewBox="0 0 200 200" fill="none" xmlns="http://www.w3.org/2000/svg">
<path d="M19.9995 0H132L156 24L180 48V200H19.9995V0Z" fill="#FDCD1B"/>
<path d="M156 24L132 0H180V48L156 24Z" fill="#FDCD1B"/>
<path d="M19.9995 0H132L156 24L180 48V200H19.9995V0Z" fill="#F8C509"/>
<path d="M156 24L132 0H180V48L156 24Z" fill="#F8C509"/>
<path d="M92.4058 110.087C92.5538 108.889 93.439 108 94.4828 108H105.515C106.56 108 107.445 108.889 107.592 110.087L109.897 128.777C110.757 135.756 106.083 142 99.9993 142C93.9152 142 89.241 135.756 90.1017 128.777L92.4058 110.087Z" fill="white"/>
<path d="M106 132C106 135.314 103.314 138 100 138C96.6861 138 94 135.314 94 132C94 128.686 96.6861 126 100 126C103.314 126 106 128.686 106 132Z" fill="#FDCD1B"/>
<rect x="91.9998" y="100" width="16" height="4" rx="2" fill="white"/>
<rect x="91.9998" y="91.9999" width="16" height="4" rx="2" fill="white"/>
<rect x="91.9998" y="84" width="16" height="4" rx="2" fill="white"/>
<rect x="91.9998" y="75.9999" width="16" height="4" rx="2" fill="white"/>
<rect x="91.9998" y="68" width="16" height="4" rx="2" fill="white"/>
<rect x="91.9998" y="59.9999" width="16" height="4" rx="2" fill="white"/>
<rect x="91.9998" y="52" width="16" height="4" rx="2" fill="white"/>
<rect x="91.9998" y="43.9999" width="16" height="4" rx="2" fill="white"/>
<rect x="91.9998" y="36.0001" width="16" height="4" rx="2" fill="white"/>
<rect x="91.9998" y="27.9999" width="16" height="4" rx="2" fill="white"/>
<rect x="91.9998" y="20.0001" width="16" height="4" rx="2" fill="white"/>
<rect x="91.9998" y="11.9999" width="16" height="4" rx="2" fill="white"/>
<rect x="91.9998" y="4.00006" width="16" height="4" rx="2" fill="white"/>
</svg>
