<svg width="200" height="200" viewBox="0 0 200 200" fill="none" xmlns="http://www.w3.org/2000/svg">
<path d="M20 0H132L156 24L180 48V200H20V0Z" fill="#A93AD4"/>
<path d="M156 24L132 0L180 48L156 24Z" fill="#A93AD4"/>
<path d="M136 48H180L132 0V44C132 46.2091 133.791 48 136 48Z" fill="#9632BD"/>
<path fill-rule="evenodd" clip-rule="evenodd" d="M153.133 65.8969H44.6342V141.445H153.133V65.8969ZM44.6342 62.4102C42.6366 62.4102 41.0176 63.972 41.0176 65.8969V141.445C41.0176 143.37 42.6366 144.931 44.6342 144.931H153.133C155.13 144.931 156.749 143.37 156.749 141.445V65.8969C156.749 63.972 155.13 62.4102 153.133 62.4102H44.6342Z" fill="white"/>
<path d="M138.664 130.984H147.103V134.471H138.664V130.984Z" fill="white"/>
<path d="M138.664 119.361H147.103V122.848H138.664V119.361Z" fill="white"/>
<path d="M138.664 107.739H147.103V111.226H138.664V107.739Z" fill="white"/>
<path d="M138.664 96.1162H147.103V99.603H138.664V96.1162Z" fill="white"/>
<path d="M138.664 84.4941H147.103V87.9809H138.664V84.4941Z" fill="white"/>
<path d="M138.664 72.8711H147.103V76.3579H138.664V72.8711Z" fill="white"/>
<path d="M50.6602 130.984H59.0992V134.471H50.6602V130.984Z" fill="white"/>
<path d="M50.6602 119.361H59.0992V122.848H50.6602V119.361Z" fill="white"/>
<path d="M50.6602 107.739H59.0992V111.226H50.6602V107.739Z" fill="white"/>
<path d="M50.6602 96.1162H59.0992V99.603H50.6602V96.1162Z" fill="white"/>
<path d="M50.6602 84.4941H59.0992V87.9809H50.6602V84.4941Z" fill="white"/>
<path d="M50.6602 72.8711H59.0992V76.3579H50.6602V72.8711Z" fill="white"/>
<path d="M83.209 119.683V86.4963C83.209 85.6039 84.2097 85.044 85.013 85.4869L115.132 102.08C115.942 102.527 115.942 103.653 115.132 104.099L85.013 120.692C84.2097 121.135 83.209 120.576 83.209 119.683Z" fill="white"/>
<path fill-rule="evenodd" clip-rule="evenodd" d="M85.017 87.4984V118.683L113.319 103.09L85.017 87.4984ZM81.4004 86.4965C81.4004 84.266 83.9007 82.8667 85.9098 83.9745L116.029 100.567C118.055 101.683 118.054 104.498 116.029 105.613L85.9098 122.207C83.9007 123.313 81.4004 121.915 81.4004 119.684V86.4965Z" fill="white"/>
</svg>
