<svg width="200" height="200" viewBox="0 0 200 200" fill="none" xmlns="http://www.w3.org/2000/svg">
<path d="M20.0039 0H132.004L156.004 24L180.004 48V200H20.0039V0Z" fill="#00A1D8"/>
<path d="M156.004 24L132.004 0L180.004 48L156.004 24Z" fill="#00A1D8"/>
<path d="M30.0039 119.663C30.0039 118.743 31.0629 117.997 32.3698 117.997H164.898C166.205 117.997 167.264 118.743 167.264 119.663C167.264 120.584 166.205 121.33 164.898 121.33H32.3698C31.0629 121.33 30.0039 120.584 30.0039 119.663Z" fill="white"/>
<path d="M30.0039 140.497C30.0039 139.576 31.0629 138.831 32.3698 138.831H164.898C166.205 138.831 167.264 139.576 167.264 140.497C167.264 141.417 166.205 142.164 164.898 142.164H32.3698C31.0629 142.164 30.0039 141.417 30.0039 140.497Z" fill="white"/>
<path d="M30.0039 182.334C30.0039 181.414 31.0629 180.668 32.3698 180.668H164.898C166.205 180.668 167.264 181.414 167.264 182.334C167.264 183.255 166.205 184.001 164.898 184.001H32.3698C31.0629 184.001 30.0039 183.255 30.0039 182.334Z" fill="white"/>
<path d="M30.0039 36.3303C30.0039 35.4099 30.7542 34.6641 31.6803 34.6641H55.1562C56.0822 34.6641 56.8334 35.4099 56.8334 36.3303C56.8334 37.2516 56.0822 37.9974 55.1562 37.9974H31.6803C30.7542 37.9974 30.0039 37.2516 30.0039 36.3303Z" fill="white"/>
<path d="M30.0039 15.4973C30.0039 14.5768 30.7542 13.8306 31.6803 13.8306H84.2208C85.1468 13.8306 85.898 14.5768 85.898 15.4973C85.898 16.4177 85.1468 17.1639 84.2208 17.1639H31.6803C30.7542 17.1639 30.0039 16.4177 30.0039 15.4973Z" fill="white"/>
<path d="M65.1699 36.3303C65.1699 35.4099 65.9212 34.6641 66.8472 34.6641H124.977C125.903 34.6641 126.654 35.4099 126.654 36.3303C126.654 37.2516 125.903 37.9974 124.977 37.9974H66.8472C65.9212 37.9974 65.1699 37.2516 65.1699 36.3303Z" fill="white"/>
<path d="M30.0039 161.33C30.0039 160.41 30.7542 159.664 31.6803 159.664H108.814C109.74 159.664 110.492 160.41 110.492 161.33C110.492 162.251 109.74 162.997 108.814 162.997H31.6803C30.7542 162.997 30.0039 162.251 30.0039 161.33Z" fill="white"/>
<path d="M118.822 161.501C118.822 160.581 119.767 159.835 120.931 159.835H168.714C169.878 159.835 170.822 160.581 170.822 161.501C170.822 162.422 169.878 163.168 168.714 163.168H120.931C119.767 163.168 118.822 162.422 118.822 161.501Z" fill="white"/>
<path d="M30.0039 98.8303C30.0039 97.9099 30.7542 97.1641 31.6803 97.1641H108.814C109.74 97.1641 110.492 97.9099 110.492 98.8303C110.492 99.7507 109.74 100.497 108.814 100.497H31.6803C30.7542 100.497 30.0039 99.7507 30.0039 98.8303Z" fill="white"/>
<path d="M118.822 98.8303C118.822 97.9099 119.573 97.1641 120.499 97.1641H158.507C159.433 97.1641 160.184 97.9099 160.184 98.8303C160.184 99.7507 159.433 100.497 158.507 100.497H120.499C119.573 100.497 118.822 99.7507 118.822 98.8303Z" fill="white"/>
<path d="M30.0039 57.1633C30.0039 56.2429 30.7542 55.4971 31.6803 55.4971H125.583C126.509 55.4971 127.259 56.2429 127.259 57.1633C127.259 58.0837 126.509 58.8304 125.583 58.8304H31.6803C30.7542 58.8304 30.0039 58.0837 30.0039 57.1633Z" fill="white"/>
<path d="M30.0039 77.9968C30.0039 77.0764 31.2949 76.3306 32.8881 76.3306H165.598C167.191 76.3306 168.484 77.0764 168.484 77.9968C168.484 78.9172 167.191 79.6639 165.598 79.6639H32.8881C31.2949 79.6639 30.0039 78.9172 30.0039 77.9968Z" fill="white"/>
<path d="M136.004 48H180.004L132.004 0V44C132.004 46.2091 133.795 48 136.004 48Z" fill="#068BB8"/>
</svg>
