<svg width="200" height="200" viewBox="0 0 200 200" fill="none" xmlns="http://www.w3.org/2000/svg">
<path d="M62.1133 1.80211C62.1133 1.0968 62.7066 0.5 63.4693 0.5H153.311L190.146 36.2542V159.489C190.146 160.193 189.552 160.79 188.789 160.79H63.4693C62.7066 160.79 62.1133 160.193 62.1133 159.489V1.80211Z" fill="#4689ED" stroke="#3B77D2"/>
<path d="M153.514 34.0353V0L190.646 35.8269H155.37C154.345 35.8269 153.514 35.0248 153.514 34.0353Z" fill="#3B77D2"/>
<path d="M44.9082 14.7054C44.9082 14.0001 45.5016 13.4033 46.2643 13.4033H136.106L172.94 49.1574V172.392C172.94 173.097 172.347 173.694 171.583 173.694H46.2643C45.5015 173.694 44.9082 173.097 44.9082 172.392V14.7054Z" fill="#4689ED" stroke="#3B77D2"/>
<path d="M136.31 47.1438V12.9034L173.441 48.9461H138.166C137.141 48.9461 136.31 48.1392 136.31 47.1438Z" fill="#3B77D2"/>
<path d="M27.7046 27.6084C27.7046 26.9031 28.2979 26.3063 29.0606 26.3063H118.902L155.737 62.0605V185.295C155.737 186 155.144 186.597 154.38 186.597H29.0606C28.2979 186.597 27.7046 186 27.7046 185.295V27.6084Z" fill="#4689ED" stroke="#3B77D2"/>
<path d="M119.105 60.0467V25.8063L156.236 61.849H120.961C119.936 61.849 119.105 61.0421 119.105 60.0467Z" fill="#3B77D2"/>
<path d="M10.5 40.5118C10.5 39.8065 11.0933 39.2097 11.8561 39.2097H101.697L138.532 74.9639V198.198C138.532 198.903 137.939 199.5 137.175 199.5H11.8561C11.0933 199.5 10.5 198.903 10.5 198.198V40.5118Z" fill="#4689ED" stroke="#3B77D2"/>
<path d="M55.68 49.8628H19.9419C19.2019 49.8628 18.6021 50.3442 18.6021 50.938V50.938C18.6021 51.5319 19.2019 52.0133 19.9419 52.0133H55.68C56.42 52.0133 57.0198 51.5319 57.0198 50.938C57.0198 50.3442 56.42 49.8628 55.68 49.8628Z" fill="white"/>
<path d="M87.8437 61.0157H19.9419C19.2019 61.0157 18.6021 61.4971 18.6021 62.0909V62.0909C18.6021 62.6848 19.2019 63.1662 19.9419 63.1662H87.8437C88.5836 63.1662 89.1835 62.6848 89.1835 62.0909C89.1835 61.4971 88.5836 61.0157 87.8437 61.0157Z" fill="white"/>
<path d="M101.803 72.9138V38.7096L138.895 74.7142H103.657C102.634 74.7142 101.803 73.9082 101.803 72.9138Z" fill="#3B77D2"/>
<path d="M72.6521 144.605C71.2409 144.605 70.0884 143.53 70.214 142.227C70.4117 140.161 70.8246 138.424 71.4536 137.017C72.3096 135.1 74.1505 132.851 76.9764 130.268C79.8023 127.66 81.6156 125.823 82.4146 124.758C83.2421 123.666 83.8702 122.481 84.2982 121.203C84.7555 119.899 84.9833 118.422 84.9833 116.771C84.9833 113.443 84.0277 110.834 82.1147 108.944C80.2311 107.027 77.5903 106.068 74.1932 106.068C70.7685 106.068 67.9996 106.987 65.8873 108.824C64.3487 110.16 63.3629 111.852 62.9291 113.899C62.6602 115.166 61.5589 116.211 60.1652 116.211C58.743 116.211 57.5721 115.129 57.7773 113.824C58.2933 110.556 59.8117 107.864 62.3336 105.749C65.4451 103.113 69.3983 101.796 74.1932 101.796C79.1037 101.796 82.9715 103.14 85.7974 105.829C88.6518 108.491 90.0789 112.112 90.0789 116.691C90.0789 119.566 89.3796 122.269 87.9809 124.797C86.5822 127.3 83.9272 130.229 80.0167 133.583C77.3349 135.687 75.7678 138.581 75.3155 142.267C75.1581 143.552 74.0475 144.605 72.6521 144.605ZM69.3983 157.943C69.3983 157.038 69.6981 156.279 70.297 155.667C70.9251 155.028 71.7962 154.708 72.9093 154.708C73.9939 154.708 74.8499 155.028 75.478 155.667C76.1347 156.279 76.463 157.038 76.463 157.943C76.463 158.822 76.1347 159.567 75.478 160.18C74.8499 160.765 73.9939 161.058 72.9093 161.058C71.7962 161.058 70.9251 160.765 70.297 160.18C69.6981 159.567 69.3983 158.822 69.3983 157.943Z" fill="white"/>
</svg>
