<svg width="200" height="200" viewBox="0 0 200 200" fill="none" xmlns="http://www.w3.org/2000/svg">
<path d="M117.781 32.0348C118.074 30.5181 119.586 29.5171 121.159 29.799L152.367 35.3904C153.941 35.6723 154.979 37.1303 154.686 38.6469L148.887 68.7344C148.594 70.2516 147.082 71.2526 145.509 70.9703L114.301 65.3793C112.728 65.097 111.69 63.6392 111.982 62.1226L117.781 32.0348Z" fill="#F16807"/>
<path fill-rule="evenodd" clip-rule="evenodd" d="M133.978 39.9388C134.073 39.4442 134.663 39.2061 135.096 39.4878L142.151 44.0853C142.39 44.2411 142.511 44.5184 142.458 44.7914L141.694 48.7513C141.599 49.246 141.009 49.4838 140.577 49.202L134.697 45.3703L132.415 57.2055L132.405 57.2039C132.395 57.2952 132.38 57.3866 132.363 57.4785C131.927 59.7391 129.663 61.2293 127.307 60.8073C124.951 60.3846 123.394 58.2104 123.83 55.9498C124.266 53.6891 126.529 52.1989 128.885 52.621C129.845 52.7932 130.673 53.2566 131.287 53.8982L133.978 39.9388ZM135.862 41.9984C135.645 41.8576 135.351 41.9766 135.303 42.2239L135.041 43.5833L139.811 46.6915C140.027 46.8324 140.322 46.7135 140.37 46.4659L140.588 45.3317C140.614 45.1953 140.555 45.0566 140.435 44.9785L135.862 41.9984Z" fill="white"/>
<path d="M20.5056 125.112C20.8958 123.617 22.4701 122.709 24.0221 123.085L53.5239 130.236C55.0759 130.612 56.0177 132.13 55.6272 133.626L48.2098 162.069C47.82 163.565 46.2458 164.473 44.6938 164.097L15.1914 156.946C13.6397 156.57 12.698 155.052 13.0881 153.556L20.5056 125.112Z" fill="#EC2B2B"/>
<path fill-rule="evenodd" clip-rule="evenodd" d="M30.6867 155.703C37.5836 157.375 44.5803 153.339 46.3144 146.69C48.0484 140.041 43.8634 133.295 36.9666 131.623C30.0697 129.952 23.0727 133.987 21.3387 140.636C19.6047 147.285 23.7899 154.031 30.6867 155.703ZM30.3334 157.057C38.0065 158.917 45.7904 154.428 47.7196 147.031C49.6483 139.634 44.9924 132.129 37.3193 130.269C29.6468 128.409 21.8629 132.898 19.9338 140.296C18.0047 147.693 22.6609 155.197 30.3334 157.057Z" fill="white"/>
<path fill-rule="evenodd" clip-rule="evenodd" d="M30.5228 138.277C30.8019 137.205 32.2003 136.856 32.9846 137.662L39.2387 144.093C39.9705 144.847 39.632 146.079 38.6086 146.383L30.0102 148.941C28.9308 149.263 27.9029 148.322 28.178 147.266L30.5228 138.277ZM38.1816 145.049L31.9275 138.617L29.5833 147.607L38.1816 145.049Z" fill="white"/>
<path d="M82.3728 97.2739C82.616 96.9673 83.0703 96.9096 83.3883 97.144L111.375 117.815C111.693 118.05 111.753 118.488 111.51 118.794L90.2862 145.503C90.0431 145.809 89.5887 145.867 89.2708 145.632L61.2839 124.961C60.9665 124.727 60.906 124.289 61.1492 123.982L82.3728 97.2739Z" fill="#77C03E"/>
<path fill-rule="evenodd" clip-rule="evenodd" d="M85.3279 115.26C85.3679 115.645 85.0785 115.987 84.6801 116.026L79.0395 116.578L80.0607 121.954C80.1332 122.334 79.8723 122.698 79.479 122.767C79.0852 122.836 78.7079 122.585 78.636 122.206L77.6149 116.829C77.4625 116.028 78.0521 115.271 78.8934 115.188L84.534 114.636C84.9318 114.597 85.2874 114.877 85.3279 115.26Z" fill="white"/>
<path fill-rule="evenodd" clip-rule="evenodd" d="M93.2275 120.981C92.8343 121.051 92.5734 121.415 92.6459 121.794L93.6671 127.171L88.0265 127.723C87.6281 127.762 87.3387 128.104 87.3787 128.488C87.4192 128.872 87.7748 129.151 88.1727 129.112L93.8132 128.56C94.6545 128.478 95.2441 127.721 95.0917 126.919L94.0706 121.543C93.9987 121.163 93.6214 120.912 93.2275 120.981Z" fill="white"/>
<path fill-rule="evenodd" clip-rule="evenodd" d="M93.8144 116.773C94.0399 117.092 93.9543 117.527 93.6238 117.743L79.6075 126.948C79.277 127.165 78.8267 127.082 78.6012 126.764C78.3763 126.445 78.4614 126.01 78.7924 125.794L92.8081 116.589C93.1386 116.372 93.5896 116.455 93.8144 116.773Z" fill="white"/>
<path d="M126.566 103.511L143.248 101.083L143.356 101.773L126.675 104.201L126.566 103.511Z" fill="#D5E6FF"/>
<path d="M127.756 111.107L163.565 105.894L163.673 106.585L127.864 111.797L127.756 111.107Z" fill="#D5E6FF"/>
<path d="M128.945 118.701L179.078 111.404L179.186 112.095L129.054 119.392L128.945 118.701Z" fill="#D5E6FF"/>
<path d="M130.135 126.297L180.268 119L180.376 119.69L130.243 126.987L130.135 126.297Z" fill="#D5E6FF"/>
<path d="M131.324 133.891L181.457 126.594L181.565 127.285L131.433 134.582L131.324 133.891Z" fill="#D5E6FF"/>
<path d="M132.514 141.487L182.647 134.19L182.754 134.881L132.622 142.178L132.514 141.487Z" fill="#D5E6FF"/>
<path d="M133.703 149.082L183.836 141.785L183.944 142.476L133.812 149.773L133.703 149.082Z" fill="#D5E6FF"/>
<path d="M134.893 156.677L185.026 149.38L185.133 150.071L135.001 157.368L134.893 156.677Z" fill="#D5E6FF"/>
<path d="M136.082 164.272L186.215 156.975L186.323 157.666L136.19 164.963L136.082 164.272Z" fill="#D5E6FF"/>
<path d="M118 96.6284L161.661 89.8885L172.461 97.8002L183.261 105.712L192.408 164.966L130.036 174.594L118 96.6284Z" fill="#00A1D8"/>
<path d="M172.461 97.8002L161.661 89.8885L183.261 105.712L172.461 97.8002Z" fill="#00A1D8"/>
<path d="M129.101 142.675C129.045 142.316 129.413 141.962 129.923 141.883L181.586 133.908C182.096 133.829 182.553 134.056 182.609 134.415C182.664 134.774 182.296 135.129 181.787 135.207L130.123 143.183C129.614 143.261 129.156 143.034 129.101 142.675Z" fill="white"/>
<path d="M130.354 150.796C130.298 150.438 130.666 150.083 131.176 150.005L182.839 142.029C183.349 141.951 183.806 142.178 183.862 142.536C183.917 142.895 183.549 143.25 183.04 143.329L131.376 151.304C130.867 151.383 130.409 151.155 130.354 150.796Z" fill="white"/>
<path d="M132.872 167.106C132.816 166.747 133.184 166.393 133.694 166.314L185.357 158.339C185.867 158.26 186.324 158.487 186.38 158.846C186.435 159.205 186.067 159.56 185.558 159.638L133.894 167.614C133.385 167.692 132.927 167.465 132.872 167.106Z" fill="white"/>
<path d="M124.084 110.189C124.029 109.83 124.276 109.494 124.637 109.439L133.789 108.026C134.15 107.97 134.488 108.216 134.543 108.575C134.599 108.934 134.351 109.27 133.99 109.325L124.838 110.738C124.477 110.794 124.14 110.548 124.084 110.189Z" fill="white"/>
<path d="M122.831 102.068C122.776 101.709 123.023 101.373 123.384 101.317L143.866 98.1555C144.227 98.0998 144.565 98.3455 144.62 98.7043C144.676 99.0631 144.428 99.3992 144.067 99.455L123.585 102.617C123.224 102.672 122.887 102.427 122.831 102.068Z" fill="white"/>
<path d="M137.792 108.073C137.737 107.714 137.985 107.378 138.346 107.323L161.007 103.824C161.368 103.769 161.705 104.014 161.76 104.373C161.816 104.732 161.568 105.068 161.207 105.124L138.546 108.622C138.185 108.678 137.848 108.432 137.792 108.073Z" fill="white"/>
<path d="M131.606 158.918C131.551 158.559 131.798 158.223 132.159 158.167L162.228 153.526C162.589 153.47 162.927 153.716 162.983 154.074C163.038 154.433 162.79 154.769 162.429 154.825L132.36 159.467C131.999 159.523 131.662 159.277 131.606 158.918Z" fill="white"/>
<path d="M166.242 153.639C166.186 153.281 166.51 152.933 166.964 152.863L185.591 149.987C186.045 149.917 186.458 150.151 186.513 150.51C186.568 150.869 186.245 151.217 185.791 151.287L167.164 154.162C166.71 154.232 166.297 153.998 166.242 153.639Z" fill="white"/>
<path d="M127.845 134.554C127.79 134.195 128.038 133.859 128.399 133.803L158.468 129.161C158.829 129.106 159.166 129.351 159.222 129.71C159.277 130.069 159.029 130.405 158.668 130.461L128.599 135.103C128.238 135.158 127.901 134.912 127.845 134.554Z" fill="white"/>
<path d="M162.47 129.208C162.415 128.85 162.663 128.514 163.024 128.458L177.841 126.171C178.202 126.115 178.539 126.361 178.595 126.719C178.65 127.078 178.402 127.414 178.041 127.47L163.225 129.757C162.864 129.813 162.526 129.567 162.47 129.208Z" fill="white"/>
<path d="M125.34 118.311C125.284 117.952 125.532 117.616 125.893 117.56L162.499 111.909C162.86 111.854 163.197 112.099 163.253 112.458C163.308 112.817 163.06 113.153 162.699 113.209L126.093 118.86C125.732 118.915 125.395 118.669 125.34 118.311Z" fill="white"/>
<path d="M126.592 126.432C126.537 126.073 126.995 125.705 127.617 125.609L179.351 117.623C179.972 117.527 180.521 117.74 180.576 118.099C180.631 118.458 180.173 118.826 179.551 118.922L127.817 126.908C127.196 127.004 126.648 126.791 126.592 126.432Z" fill="white"/>
<path d="M166.11 108.359L183.262 105.712L161.662 89.8883L164.31 107.041C164.443 107.902 165.249 108.492 166.11 108.359Z" fill="#068BB8"/>
<path d="M19 39.613L54.413 25.884L64.9434 30.5305L75.4739 35.1771L94.1062 83.2376L43.5162 102.851L19 39.613Z" fill="#FAAC10"/>
<path d="M64.9434 30.5305L54.413 25.884L75.4739 35.1771L64.9434 30.5305Z" fill="#FAAC10"/>
<rect x="42.0939" y="61.6227" width="32.9163" height="22.5896" rx="0.645417" transform="rotate(-21.1905 42.0939 61.6227)" stroke="white" stroke-width="1.29083"/>
<path fill-rule="evenodd" clip-rule="evenodd" d="M65.1328 47.8449L35.6457 59.2766L43.3446 79.1352L48.7607 77.0355L49.2273 78.239L43.8112 80.3388C43.1465 80.5964 42.3988 80.2665 42.1411 79.6018L34.4422 59.7432C34.1845 59.0785 34.5144 58.3307 35.1791 58.073L64.6662 46.6414C65.3309 46.3837 66.0786 46.7136 66.3363 47.3783L68.2028 52.1927L66.9992 52.6593L65.1328 47.8449Z" fill="white"/>
<path d="M61.5624 40.5706L75.4746 35.177L54.4137 25.8839L59.8073 39.7961C60.0781 40.4946 60.8639 40.8414 61.5624 40.5706Z" fill="#DC9505"/>
</svg>
