<svg width="200" height="200" viewBox="0 0 200 200" fill="none" xmlns="http://www.w3.org/2000/svg">
<path d="M20 0H132L156 24L180 48V200H20V0Z" fill="#EC2B2B"/>
<path d="M156 24L132 0L180 48L156 24Z" fill="#EC2B2B"/>
<path d="M136 48H180L132 0V44C132 46.2091 133.791 48 136 48Z" fill="#D02929"/>
<path d="M151.29 132.233C148.72 127.645 139.84 126.204 135.766 125.555C132.555 125.044 129.277 124.891 126.029 124.894C123.479 124.877 120.967 125.003 118.486 125.144C117.572 125.206 116.667 125.285 115.763 125.363C114.836 124.402 113.94 123.41 113.073 122.395C107.557 115.854 103.103 108.438 99.4732 100.73C100.437 97.0065 101.208 93.1201 101.673 89.0838C102.523 81.7172 102.816 73.3219 100.059 66.2986C99.1078 63.8746 96.5704 60.9235 93.643 62.393C90.2774 64.083 89.3308 68.8709 89.0563 72.2649C88.8356 75.0083 88.99 77.7587 89.45 80.4561C89.9184 83.1719 90.6725 85.7506 91.4936 88.3258C92.2596 90.6869 93.104 93.0296 94.0246 95.3505C93.4405 97.1775 92.8204 98.9727 92.1693 100.722C90.6513 104.709 89.0098 108.496 87.4311 112.14C86.5987 113.946 85.7839 115.715 84.9868 117.443C82.4642 122.993 79.7258 128.441 76.6523 133.707C69.4831 136.24 63.0497 139.176 57.7069 142.627C54.8408 144.481 52.3091 146.495 50.2006 148.705C48.2099 150.79 46.1867 153.497 46.0097 156.493C45.9102 158.184 46.5789 159.826 47.9623 160.829C49.8648 162.252 52.3859 162.158 54.5932 161.694C61.8237 160.175 67.3761 153.95 72.1045 148.704C75.3614 145.09 79.0683 140.501 82.946 134.952C82.9545 134.939 82.963 134.926 82.9721 134.914C89.6228 132.849 96.8611 131.105 104.543 129.823C108.053 129.241 111.655 128.764 115.33 128.429C117.914 130.853 120.706 133.06 123.752 134.903C126.124 136.365 128.647 137.599 131.288 138.52C133.959 139.394 136.646 140.107 139.42 140.559C140.821 140.759 142.254 140.85 143.718 140.795C146.984 140.672 151.673 139.417 151.981 135.447C152.075 134.232 151.814 133.167 151.29 132.233ZM73.0808 139.517C71.5507 141.89 70.075 144.025 68.6846 145.904C65.2796 150.544 61.3906 156.056 55.7599 158.117C54.6905 158.508 53.2825 158.912 51.7983 158.824C50.4764 158.747 49.1728 158.162 49.2327 156.659C49.2624 155.872 49.6468 154.868 50.2365 153.882C50.882 152.8 51.6812 151.808 52.5468 150.896C54.4013 148.945 56.7461 147.053 59.4436 145.302C63.5809 142.614 68.5202 140.194 74.026 138.035C73.7093 138.537 73.3933 139.035 73.0808 139.517ZM92.2836 79.987C91.859 77.5043 91.7948 74.9871 92.0558 72.5666C92.1856 71.3564 92.4318 70.1751 92.788 69.068C93.0899 68.1284 93.7417 65.8351 94.7815 65.5405C96.4957 65.0544 97.0226 68.7402 97.2166 69.783C98.3213 75.7148 97.3478 82.3113 96.0223 88.1301C95.8114 89.0556 95.5765 89.9662 95.336 90.8734C94.9254 89.7423 94.5339 88.6077 94.1734 87.4674C93.3975 84.977 92.6878 82.4576 92.2836 79.987ZM104.052 126.814C97.6116 127.859 91.4851 129.229 85.7261 130.846C86.4195 130.652 89.5882 124.638 90.2951 123.389C93.6253 117.515 96.3497 111.349 98.3072 104.881C101.764 111.728 105.959 118.278 111.113 124.108C111.587 124.637 112.07 125.16 112.561 125.676C109.673 125.988 106.831 126.367 104.052 126.814ZM147.607 135.075C147.372 136.351 144.652 137.08 143.383 137.28C139.633 137.871 135.666 137.398 132.077 136.191C129.614 135.363 127.239 134.235 124.983 132.879C122.739 131.522 120.641 129.925 118.679 128.165C121.098 128.019 123.546 127.924 126.007 127.97C128.467 127.995 130.947 128.119 133.396 128.439C137.989 128.952 143.136 130.531 146.751 133.516C147.463 134.105 147.69 134.625 147.607 135.075Z" fill="white"/>
</svg>
