<svg width="200" height="200" viewBox="0 0 200 200" fill="none" xmlns="http://www.w3.org/2000/svg">
<path d="M76.0871 37.2478C76.0871 36.9123 76.3693 36.6236 76.7381 36.6236H126.134L146.346 56.298V124.259C146.346 124.594 146.064 124.883 145.695 124.883H76.7381C76.3692 124.883 76.0871 124.594 76.0871 124.259V37.2478Z" fill="#4689ED" stroke="#3B77D2" stroke-width="0.740554"/>
<path d="M126.285 55.1472V36.2533L146.717 56.1417H127.306C126.743 56.1417 126.285 55.6965 126.285 55.1472Z" fill="#3B77D2"/>
<path d="M66.0871 44.2283C66.0871 43.8929 66.3693 43.6042 66.7381 43.6042H116.134L136.347 63.2786V131.24C136.347 131.575 136.064 131.864 135.695 131.864H66.7381C66.3692 131.864 66.0871 131.575 66.0871 131.24V44.2283Z" fill="#4689ED" stroke="#3B77D2" stroke-width="0.740554"/>
<path d="M116.231 62.1078V43.2339L136.641 63.1013H117.252C116.688 63.1013 116.231 62.6565 116.231 62.1078Z" fill="#3B77D2"/>
<path d="M61 83.6257C61 83.2801 61.3092 83 61.6905 83H95.1869L109 95.514V138.374C109 138.72 108.691 139 108.309 139H61.6905C61.3092 139 61 138.72 61 138.374V83.6257Z" fill="#CEDDF3"/>
<path d="M77.2286 76C88.1631 76 98.6497 80.3437 106.382 88.0756C114.113 95.8074 118.457 106.294 118.457 117.229C118.457 127.441 114.715 136.828 108.562 144.059L110.275 145.771H115.286L147 177.486L137.486 187L105.771 155.286V150.275L104.059 148.562C96.828 154.715 87.4406 158.457 77.2286 158.457C66.2941 158.457 55.8074 154.113 48.0756 146.382C40.3437 138.65 36 128.163 36 117.229C36 106.294 40.3437 95.8074 48.0756 88.0756C55.8074 80.3437 66.2941 76 77.2286 76ZM77.2286 88.6857C61.3714 88.6857 48.6857 101.371 48.6857 117.229C48.6857 133.086 61.3714 145.771 77.2286 145.771C93.0857 145.771 105.771 133.086 105.771 117.229C105.771 101.371 93.0857 88.6857 77.2286 88.6857Z" fill="#FAAC10"/>
</svg>
