<svg width="200" height="200" viewBox="0 0 200 200" fill="none" xmlns="http://www.w3.org/2000/svg">
<path d="M20 0H132L156 24L180 48V200H20V0Z" fill="#F16807"/>
<path d="M156 24L132 0L180 48L156 24Z" fill="#F16807"/>
<path fill-rule="evenodd" clip-rule="evenodd" d="M78.5969 87.0161C79.6202 88.0882 79.5503 89.7593 78.4425 90.749L62.7309 104.777L78.4425 118.805C79.5503 119.794 79.6202 121.466 78.5969 122.538C77.5737 123.611 75.845 123.677 74.7361 122.687L59.0256 108.66C56.6816 106.567 56.6816 102.987 59.0256 100.895L74.7361 86.8668C75.845 85.8769 77.5737 85.9438 78.5969 87.0161Z" fill="white"/>
<path fill-rule="evenodd" clip-rule="evenodd" d="M119.509 87.0146C118.486 88.0868 118.556 89.7578 119.664 90.7475L135.375 104.776L119.664 118.803C118.556 119.793 118.486 121.465 119.509 122.536C120.533 123.609 122.261 123.676 123.37 122.686L139.081 108.658C141.425 106.566 141.425 102.985 139.081 100.893L123.37 86.8652C122.261 85.8755 120.533 85.9423 119.509 87.0146Z" fill="white"/>
<path fill-rule="evenodd" clip-rule="evenodd" d="M108.335 72.7189C109.775 73.1525 110.576 74.6335 110.126 76.0268L91.0142 135.095C90.5634 136.49 89.0302 137.268 87.5906 136.834C86.1511 136.4 85.3494 134.918 85.8003 133.525L104.912 74.4565C105.362 73.0632 106.895 72.2852 108.335 72.7189Z" fill="white"/>
<path d="M136 48H180L132 0V44C132 46.2091 133.791 48 136 48Z" fill="#D15701"/>
</svg>
