<svg width="200" height="200" viewBox="0 0 200 200" fill="none" xmlns="http://www.w3.org/2000/svg">
<path d="M20 0H132L156 24L180 48V200H20V0Z" fill="#4689ED"/>
<path d="M156 24L132 0L180 48L156 24Z" fill="#4689ED"/>
<path d="M136 48H180L132 0V44C132 46.2091 133.791 48 136 48Z" fill="#3B77D2"/>
<path d="M100 72C118.15 72 133 86.85 133 105C133 123.15 118.15 138 100 138C81.85 138 67 123.15 67 105C67 86.85 81.85 72 100 72ZM100 78.6C93.73 78.6 88.12 80.58 83.83 84.21L120.79 121.17C124.09 116.55 126.4 110.94 126.4 105C126.4 90.48 114.52 78.6 100 78.6ZM116.17 125.79L79.21 88.83C75.58 93.12 73.6 98.73 73.6 105C73.6 119.52 85.48 131.4 100 131.4C106.27 131.4 111.88 129.42 116.17 125.79Z" fill="white"/>
</svg>
