<svg width="200" height="200" viewBox="0 0 200 200" fill="none" xmlns="http://www.w3.org/2000/svg">
<path d="M20 0H132L156 24L180 48V200H20V0Z" fill="#4689ED"/>
<path d="M156 24L132 0L180 48L156 24Z" fill="#4689ED"/>
<path d="M97.4187 125.231C95.5944 125.231 94.1046 123.842 94.267 122.157C94.5226 119.486 95.0563 117.241 95.8694 115.423C96.9759 112.945 99.3556 110.037 103.009 106.698C106.661 103.326 109.005 100.952 110.038 99.5748C111.108 98.1637 111.92 96.6323 112.473 94.9804C113.064 93.2943 113.359 91.3845 113.359 89.2509C113.359 84.9485 112.124 81.5764 109.651 79.1326C107.216 76.6548 103.802 75.4153 99.4108 75.4153C94.9838 75.4153 91.4045 76.6026 88.674 78.9781C86.6851 80.7053 85.4108 82.8921 84.85 85.5386C84.5024 87.1764 83.0787 88.5273 81.2771 88.5273C79.4388 88.5273 77.9252 87.1283 78.1905 85.4412C78.8574 81.2161 80.8203 77.7366 84.0802 75.0029C88.1023 71.5957 93.2125 69.8926 99.4108 69.8926C105.759 69.8926 110.758 71.6298 114.411 75.1062C118.101 78.5475 119.946 83.2283 119.946 89.1475C119.946 92.8638 119.042 96.3573 117.234 99.626C115.426 102.862 111.994 106.647 106.939 110.984C103.472 113.702 101.446 117.444 100.862 122.209C100.658 123.87 99.2224 125.231 97.4187 125.231ZM93.2125 142.472C93.2125 141.303 93.6001 140.322 94.3742 139.531C95.1862 138.705 96.3122 138.291 97.7511 138.291C99.1532 138.291 100.26 138.705 101.072 139.531C101.92 140.322 102.345 141.303 102.345 142.472C102.345 143.608 101.92 144.572 101.072 145.364C100.26 146.12 99.1532 146.5 97.7511 146.5C96.3122 146.5 95.1862 146.12 94.3742 145.364C93.6001 144.572 93.2125 143.608 93.2125 142.472Z" fill="white"/>
<path d="M30.0039 36.3303C30.0039 35.4099 30.7542 34.6641 31.6803 34.6641H55.1562C56.0822 34.6641 56.8334 35.4099 56.8334 36.3303C56.8334 37.2516 56.0822 37.9974 55.1562 37.9974H31.6803C30.7542 37.9974 30.0039 37.2516 30.0039 36.3303Z" fill="white"/>
<path d="M30.0039 15.4973C30.0039 14.5768 30.7542 13.8306 31.6803 13.8306H84.2208C85.1468 13.8306 85.898 14.5768 85.898 15.4973C85.898 16.4177 85.1468 17.1639 84.2208 17.1639H31.6803C30.7542 17.1639 30.0039 16.4177 30.0039 15.4973Z" fill="white"/>
<path d="M65.1699 36.3303C65.1699 35.4099 65.9212 34.6641 66.8472 34.6641H124.977C125.903 34.6641 126.654 35.4099 126.654 36.3303C126.654 37.2516 125.903 37.9974 124.977 37.9974H66.8472C65.9212 37.9974 65.1699 37.2516 65.1699 36.3303Z" fill="white"/>
<path d="M136 48H180L132 0V44C132 46.2091 133.791 48 136 48Z" fill="#3B77D2"/>
</svg>
