<svg width="200" height="200" viewBox="0 0 200 200" fill="none" xmlns="http://www.w3.org/2000/svg">
<path d="M20 0H132L156 24L180 48V200H20V0Z" fill="#DD3674"/>
<path d="M156 24L132 0L180 48L156 24Z" fill="#DD3674"/>
<path fill-rule="evenodd" clip-rule="evenodd" d="M113.237 85.4058C114.427 84.643 116.035 84.9545 116.827 86.103C120.374 91.2459 122.441 97.4219 122.441 104.055C122.441 110.688 120.374 116.864 116.827 122.007C116.035 123.155 114.427 123.467 113.237 122.704C112.045 121.94 111.721 120.39 112.514 119.241C115.513 114.892 117.26 109.674 117.26 104.055C117.26 98.4352 115.513 93.2173 112.514 88.8682C111.721 87.7197 112.045 86.1696 113.237 85.4058Z" fill="white"/>
<path fill-rule="evenodd" clip-rule="evenodd" d="M118.134 75.757C119.207 74.8441 120.844 74.9426 121.79 75.9766C128.639 83.4587 132.798 93.2922 132.798 104.056C132.798 114.82 128.639 124.653 121.79 132.136C120.844 133.17 119.207 133.268 118.134 132.355C117.062 131.442 116.959 129.865 117.906 128.831C123.952 122.226 127.618 113.557 127.618 104.056C127.618 94.5552 123.952 85.8861 117.906 79.2813C116.959 78.2473 117.062 76.67 118.134 75.757Z" fill="white"/>
<path fill-rule="evenodd" clip-rule="evenodd" d="M123.18 66.6416C124.181 65.6564 125.821 65.6413 126.842 66.6069C136.909 76.1204 143.16 89.3863 143.16 104.055C143.16 118.723 136.909 131.989 126.842 141.502C125.821 142.468 124.181 142.453 123.18 141.467C122.178 140.483 122.195 138.902 123.216 137.936C132.33 129.323 137.979 117.327 137.979 104.055C137.979 90.7825 132.33 78.7862 123.216 70.1725C122.195 69.2069 122.178 67.6268 123.18 66.6416Z" fill="white"/>
<path d="M54.9453 95.2548C54.9453 92.6603 57.1273 90.5566 59.8184 90.5566H70.782V119.918H59.8184C57.1273 119.918 54.9453 117.815 54.9453 115.22V95.2548Z" fill="white"/>
<path fill-rule="evenodd" clip-rule="evenodd" d="M76.8753 92.6989V117.776L102.457 130.565V79.9097L76.8753 92.6989ZM73.2207 119.918L102.553 134.582C104.176 135.393 106.112 134.258 106.112 132.497V77.9787C106.112 76.2165 104.176 75.0821 102.553 75.8928L73.2207 90.5568V119.918Z" fill="white"/>
<path d="M136 48H180L132 0V44C132 46.2091 133.791 48 136 48Z" fill="#CC2A66"/>
</svg>
