<svg width="24" height="24" viewBox="0 0 24 24" fill="none" xmlns="http://www.w3.org/2000/svg">
<path d="M2.40039 0H15.8404L18.7204 2.88L21.6004 5.76V24H2.40039V0Z" fill="#DD3674"/>
<path d="M18.7204 2.88L15.8404 0L21.6004 5.76L18.7204 2.88Z" fill="#DD3674"/>
<path fill-rule="evenodd" clip-rule="evenodd" d="M15.7806 8.09359C15.6417 7.96708 15.4186 7.96905 15.2824 8.09814C15.1461 8.22722 15.1484 8.43425 15.2873 8.56075C16.527 9.68933 17.2956 11.2611 17.2956 13.0001C17.2956 14.739 16.527 16.3107 15.2873 17.4392C15.1484 17.5658 15.1461 17.7729 15.2824 17.9019C15.4186 18.0309 15.6417 18.0329 15.7806 17.9064C17.1499 16.6599 18.0003 14.9218 18.0003 13.0001C18.0003 11.0782 17.1499 9.34006 15.7806 8.09359ZM14.5958 9.29249C14.7417 9.17287 14.9643 9.18578 15.093 9.32125C16.0248 10.3016 16.5905 11.59 16.5905 13.0002C16.5905 14.4105 16.0248 15.6989 15.093 16.6792C14.9643 16.8147 14.7417 16.8276 14.5958 16.708C14.4499 16.5884 14.436 16.3817 14.5648 16.2463C15.3872 15.3809 15.8859 14.2451 15.8859 13.0002C15.8859 11.7554 15.3872 10.6196 14.5648 9.75424C14.436 9.61876 14.4499 9.41211 14.5958 9.29249ZM13.9296 10.5567C14.0915 10.4567 14.3102 10.4975 14.418 10.648C14.9004 11.3218 15.1816 12.131 15.1816 13.0001C15.1816 13.8691 14.9004 14.6783 14.418 15.3521C14.3102 15.5026 14.0915 15.5434 13.9296 15.4435C13.7675 15.3434 13.7234 15.1403 13.8312 14.9898C14.2392 14.42 14.4769 13.7363 14.4769 13.0001C14.4769 12.2638 14.2392 11.5801 13.8312 11.0103C13.7234 10.8598 13.7675 10.6567 13.9296 10.5567ZM6 11.847C6 11.5071 6.29683 11.2314 6.66289 11.2314H8.15431V15.0784H6.66289C6.29683 15.0784 6 14.8028 6 14.4629V11.847ZM8.98322 14.7978V14.7934L9.04754 14.8288L8.98322 14.7978ZM8.48608 15.0785L12.4763 16.9998C12.697 17.106 12.9603 16.9572 12.9603 16.7265V9.58352C12.9603 9.35264 12.697 9.20401 12.4763 9.31023L8.48608 11.2315V15.0785Z" fill="white"/>
<path d="M16.3203 5.76001H21.6003L15.8403 9.53674e-06V5.28001C15.8403 5.54511 16.0552 5.76001 16.3203 5.76001Z" fill="#CC2B66"/>
</svg>
