<svg width="24" height="24" viewBox="0 0 24 24" fill="none" xmlns="http://www.w3.org/2000/svg">
<path d="M2.3999 0H15.8399L18.7199 2.88L21.5999 5.76V24H2.3999V0Z" fill="#00A1D8"/>
<path d="M18.7199 2.88L15.8399 0L21.5999 5.76L18.7199 2.88Z" fill="#00A1D8"/>
<path d="M16.3201 5.76001H21.6001L15.8401 9.53674e-06V5.28001C15.8401 5.54511 16.055 5.76001 16.3201 5.76001Z" fill="#068BB8"/>
<path fill-rule="evenodd" clip-rule="evenodd" d="M5 9.5C5 9.22386 5.22386 9 5.5 9H18.5C18.7761 9 19 9.22386 19 9.5C19 9.77614 18.7761 10 18.5 10H5.5C5.22386 10 5 9.77614 5 9.5ZM5 13.5C5 13.2239 5.22386 13 5.5 13H18.5C18.7761 13 19 13.2239 19 13.5C19 13.7761 18.7761 14 18.5 14H5.5C5.22386 14 5 13.7761 5 13.5ZM5.5 17C5.22386 17 5 17.2239 5 17.5C5 17.7761 5.22386 18 5.5 18H18.5C18.7761 18 19 17.7761 19 17.5C19 17.2239 18.7761 17 18.5 17H5.5Z" fill="white"/>
</svg>
