<svg width="24" height="24" viewBox="0 0 24 24" fill="none" xmlns="http://www.w3.org/2000/svg">
<path fill-rule="evenodd" clip-rule="evenodd" d="M1.51348 3.59998C0.677581 3.59998 0 4.24204 0 5.03411V7.41372C-0.000162532 7.42241 -0.000244141 7.43112 -0.000244141 7.43984V18.8491C-0.000244141 19.7056 0.677337 20.3999 1.51324 20.3999H22.4862C23.3221 20.3999 23.9998 19.7056 23.9998 18.8491V17.9674C23.9999 17.9587 24 17.9501 24 17.9414V7.49263C24 7.23081 23.926 6.98537 23.7966 6.77411C23.5347 6.31122 23.0459 5.99988 22.4862 5.99988H12.4121C12.2739 5.95936 12.1433 5.89363 12.028 5.79032L9.84206 3.8527C9.58969 3.6881 9.2905 3.59998 8.98405 3.59998H1.51348Z" fill="#2F77E3"/>
</svg>
