<svg width="24" height="24" viewBox="0 0 24 24" fill="none" xmlns="http://www.w3.org/2000/svg">
<path d="M2.39966 0H15.8397L18.7197 2.88L21.5997 5.76V24H2.39966V0Z" fill="#A93AD4"/>
<path d="M18.7197 2.88L15.8397 0L21.5997 5.76L18.7197 2.88Z" fill="#A93AD4"/>
<path d="M16.3199 5.76001H21.5999L15.8399 9.53674e-06V5.28001C15.8399 5.54511 16.0548 5.76001 16.3199 5.76001Z" fill="#9632BD"/>
<path fill-rule="evenodd" clip-rule="evenodd" d="M6 10H18V17H6V10ZM5 10C5 9.44772 5.44772 9 6 9H18C18.5523 9 19 9.44772 19 10V17C19 17.5523 18.5523 18 18 18H6C5.44772 18 5 17.5523 5 17V10ZM10 11.3491C10 11.0815 10.3 10.9136 10.5411 11.0465L14.1555 13.0376C14.3985 13.1716 14.3984 13.5093 14.1555 13.6431L10.5411 15.6344C10.3 15.7672 10 15.5994 10 15.3316V11.3491Z" fill="white"/>
</svg>
