<svg width="24" height="24" viewBox="0 0 24 24" fill="none" xmlns="http://www.w3.org/2000/svg">
<path d="M2.3999 0H15.8399L18.7199 2.88L21.5999 5.76001V24H2.3999V0Z" fill="#EC2B2B"/>
<path d="M18.7199 2.88L15.8399 0L21.5999 5.76001L18.7199 2.88Z" fill="#EC2B2B"/>
<path d="M16.3196 5.76001H21.5996L15.8396 3.33786e-06V5.28001C15.8396 5.54511 16.0545 5.76001 16.3196 5.76001Z" fill="#D02929"/>
<path d="M10.9981 7.05902C10.4068 7.29846 10.1065 7.83337 10.0267 8.79622C9.94221 9.75397 10.2003 10.564 10.984 11.7866L11.2186 12.1433L10.923 13.1214C10.5476 14.3593 10.1722 15.4546 10.1065 15.526C10.0736 15.5565 9.49172 15.8775 8.8066 16.2341C7.32842 17.0033 6.80285 17.3294 6.46967 17.686C6.16934 18.0069 6.03795 18.2719 6.0051 18.6336C5.91125 19.5913 7.13133 20.3147 8.06516 19.8613C8.95676 19.4283 9.89529 18.3024 10.6977 16.713L10.8667 16.3818L11.4439 16.1679C12.1149 15.9233 12.8563 15.7094 13.6963 15.5158L14.2923 15.3782L14.6114 15.6329C15.1369 16.0507 15.4701 16.285 15.8784 16.5143C16.235 16.7181 16.296 16.7384 16.5917 16.7282C17.014 16.7232 17.2392 16.6518 17.5161 16.4481C17.7977 16.2443 17.9619 15.908 17.9948 15.4699C18.0464 14.7465 17.7179 14.3084 16.9811 14.1199C16.6292 14.0333 15.6297 14.0435 15.0947 14.1403C14.8507 14.1861 14.6254 14.2218 14.5926 14.2218C14.4424 14.2218 13.166 12.9482 12.5795 12.2044L12.3401 11.9038L12.5419 11.1906C12.9314 9.84058 12.9971 9.48397 12.969 8.82169C12.9361 7.91488 12.7296 7.42072 12.2791 7.14562C12.1149 7.04373 11.9929 7.01826 11.6269 7.00298C11.3172 6.99279 11.1201 7.00807 10.9981 7.05902ZM11.8662 8.21036C11.9788 8.37847 12.0304 9.05094 11.9553 9.43302C11.9272 9.58585 11.8333 9.96284 11.7536 10.2634C11.5846 10.89 11.594 10.89 11.3312 10.3245C11.0919 9.8202 11.0121 9.50434 11.0121 9.08151C11.0121 8.60772 11.0778 8.33772 11.228 8.1747C11.3875 8.00149 11.7348 8.02186 11.8662 8.21036ZM12.6264 13.8346L13.2646 14.5122L12.9783 14.5733C12.8188 14.609 12.4011 14.7261 12.0492 14.8331C11.6973 14.9401 11.4063 15.0216 11.4016 15.0165C11.3875 15.0012 11.9553 13.152 11.9741 13.152C11.9835 13.152 12.2744 13.4576 12.6264 13.8346ZM16.7934 15.1897C16.9718 15.2458 17.0328 15.3375 16.9858 15.4801C16.9436 15.6126 16.8779 15.6482 16.6714 15.6482C16.4931 15.6482 16.0942 15.4546 15.8455 15.2407L15.7282 15.1388H16.174C16.418 15.1388 16.6949 15.1643 16.7934 15.1897ZM9.20078 17.2886C9.08816 17.5026 8.66113 18.0324 8.36549 18.333C7.83523 18.873 7.51143 19.0055 7.13602 18.8322L6.97178 18.7558L7.05156 18.603C7.09848 18.5215 7.22988 18.3788 7.34719 18.2871C7.54898 18.1292 9.121 17.2326 9.19609 17.2275C9.21955 17.2275 9.21955 17.2581 9.20078 17.2886Z" fill="white"/>
</svg>
