<svg width="24" height="24" viewBox="0 0 24 24" fill="none" xmlns="http://www.w3.org/2000/svg">
<path d="M2.40063 0H15.8406L18.7206 2.88L21.6006 5.76V24H2.40063V0Z" fill="#F16807"/>
<path d="M18.7206 2.88L15.8406 0L21.6006 5.76L18.7206 2.88Z" fill="#F16807"/>
<path d="M16.3206 5.76001H21.6006L15.8406 9.53674e-06V5.28001C15.8406 5.54511 16.0555 5.76001 16.3206 5.76001Z" fill="#D15701"/>
<path fill-rule="evenodd" clip-rule="evenodd" d="M12.3381 9.21407C12.2747 9.24962 12.1934 9.32071 12.1553 9.37657C12.102 9.45275 11.8405 10.3389 10.9797 13.3477C10.3729 15.4779 9.87524 17.2604 9.87524 17.3111C9.87524 17.4432 9.99204 17.6565 10.1063 17.7326C10.2434 17.8215 10.3678 17.8469 10.5329 17.8139C10.6446 17.791 10.6928 17.7631 10.7868 17.6666L10.9061 17.5498L12.0157 13.6651C12.6555 11.4205 13.1252 9.73712 13.1252 9.67618C13.1252 9.52892 13.0135 9.32325 12.8891 9.23946C12.7418 9.14044 12.4956 9.13029 12.3381 9.21407ZM8.07241 10.8162C8.00386 10.8365 7.70171 11.1209 6.82065 11.9994C6.14272 12.6748 5.63491 13.2004 5.6019 13.2588C5.53081 13.3959 5.53081 13.6041 5.6019 13.7412C5.63491 13.7996 6.14272 14.3252 6.82065 15.0006C7.81343 15.9883 7.99878 16.161 8.08765 16.1863C8.29839 16.2473 8.46597 16.2067 8.62339 16.0543C8.76812 15.9197 8.82144 15.7471 8.78081 15.549C8.75288 15.4196 8.73257 15.3967 7.79819 14.4598L6.84351 13.5L7.79819 12.5403C8.72495 11.611 8.75288 11.5805 8.77827 11.4561C8.86968 11.027 8.4939 10.6893 8.07241 10.8162ZM14.2296 11.1768C14.2854 10.999 14.3946 10.8797 14.5647 10.8188C14.6866 10.7756 14.778 10.7756 14.9126 10.8137C15.0014 10.8391 15.1868 11.0117 16.1796 11.9994C16.8753 12.6926 17.3653 13.1979 17.3958 13.2588C17.4313 13.3248 17.4491 13.4086 17.4491 13.5C17.4491 13.5914 17.4313 13.6752 17.3958 13.7412C17.3653 13.8022 16.8753 14.31 16.1796 15.0006C15.1081 16.0695 15.0065 16.1609 14.8973 16.1914C14.4962 16.2981 14.1356 15.9629 14.2194 15.5566L14.2473 15.417L15.202 14.4598L16.1567 13.5L15.202 12.5402L14.2473 11.583L14.2194 11.4434C14.1966 11.3291 14.1966 11.2809 14.2296 11.1768Z" fill="white"/>
</svg>
