<svg width="24" height="24" viewBox="0 0 24 24" fill="none" xmlns="http://www.w3.org/2000/svg">
<path d="M2.40039 0H15.8404L18.7204 2.88L21.6004 5.76V24H2.40039V0Z" fill="#FFAF0D"/>
<path d="M18.7204 2.88L15.8404 0L21.6004 5.76L18.7204 2.88Z" fill="#FFAF0D"/>
<path d="M16.3203 5.76001H21.6003L15.8403 9.53674e-06V5.28001C15.8403 5.54511 16.0552 5.76001 16.3203 5.76001Z" fill="#DC9505"/>
<path fill-rule="evenodd" clip-rule="evenodd" d="M5.92308 8H16.0769V10H8C7.44772 10 7 10.4477 7 11V15H5.92308L5.92308 8ZM7 16H5.92308C5.41328 16 5 15.5523 5 15V8C5 7.44772 5.41328 7 5.92308 7H16.0769C16.5867 7 17 7.44772 17 8V10H18C18.5523 10 19 10.4477 19 11V18C19 18.5523 18.5523 19 18 19H8C7.44772 19 7 18.5523 7 18V16ZM8 11H18V18H8L8 11Z" fill="white"/>
</svg>
