<svg width="24" height="24" viewBox="0 0 24 24" fill="none" xmlns="http://www.w3.org/2000/svg">
<path d="M2.39966 0H15.8397L18.7197 2.88L21.5997 5.76V24H2.39966V0Z" fill="#4689ED"/>
<path d="M18.7197 2.88L15.8397 0L21.5997 5.76L18.7197 2.88Z" fill="#4689ED"/>
<path d="M16.3196 5.76001H21.5996L15.8396 9.53674e-06V5.28001C15.8396 5.54511 16.0545 5.76001 16.3196 5.76001Z" fill="#3B77D2"/>
<path d="M11.3514 8.02602C10.4023 8.17889 9.63581 8.75143 9.24497 9.60748C8.99371 10.1578 8.94295 10.4635 9.0597 10.7137C9.21451 11.0416 9.56474 11.1639 9.87691 10.9972C10.0317 10.9166 10.1079 10.8026 10.2068 10.5052C10.5215 9.5769 10.9911 9.13776 11.7601 9.0516C12.5113 8.96544 13.2016 9.33232 13.5797 10.0133C13.7447 10.3134 13.7853 10.4913 13.7853 10.8999C13.7853 11.2139 13.7777 11.2834 13.7269 11.428C13.595 11.7921 13.4706 11.9449 12.4428 13.015C12.0012 13.4736 11.7956 13.7459 11.6433 14.0739C11.4707 14.4519 11.3819 14.8493 11.3514 15.3885C11.3337 15.7248 11.3641 15.8277 11.5139 15.9361C11.5925 15.9944 11.6306 16 11.9022 16C12.392 16 12.4453 15.95 12.4961 15.433C12.5773 14.6159 12.6788 14.4102 13.3234 13.7459C14.4731 12.5592 14.7193 12.2229 14.902 11.5892C15.0213 11.1695 15.034 10.558 14.9274 10.1244C14.8639 9.8604 14.6558 9.41292 14.4909 9.18779C14.0239 8.54576 13.4072 8.16777 12.6077 8.03714C12.3438 7.99267 11.6027 7.98711 11.3514 8.02602Z" fill="white"/>
<path d="M11.7701 17.3431C11.5721 17.404 11.3716 17.5944 11.3183 17.772C11.1838 18.2187 11.4858 18.64 11.9401 18.64C12.2168 18.64 12.4097 18.5233 12.5315 18.2771C12.666 18.0106 12.6178 17.7365 12.4046 17.5208C12.2371 17.3533 11.9782 17.2797 11.7701 17.3431Z" fill="white"/>
</svg>
