<svg width="24" height="24" viewBox="0 0 24 24" fill="none" xmlns="http://www.w3.org/2000/svg">
<path d="M1.91992 0H15.3599L18.2399 2.88L21.1199 5.76001V24H1.91992V0Z" fill="#77C03E"/>
<path d="M18.2399 2.88L15.3599 0L21.1199 5.76001L18.2399 2.88Z" fill="#77C03E"/>
<path fill-rule="evenodd" clip-rule="evenodd" d="M9 9H6V13H9V9ZM6 14H9V18H6V14ZM10 18V14H13V18H10ZM14 18V14H17V18H14ZM17 13H14V9H17V13ZM13 9V13H10V9H13ZM13.5 8H17C17.5523 8 18 8.44772 18 9V13.5V18C18 18.5523 17.5523 19 17 19H13.5H9.5H6C5.44772 19 5 18.5523 5 18V13.5V9C5 8.44771 5.44772 8 6 8H9.5H13.5Z" fill="white"/>
<path d="M15.8408 5.76001H21.1208L15.3608 3.33786e-06V5.28001C15.3608 5.54511 15.5757 5.76001 15.8408 5.76001Z" fill="#65A533"/>
</svg>
